<svg version="1.1" id="Layer_1" xmlns="http://www.w3.org/2000/svg" xmlns:xlink="http://www.w3.org/1999/xlink" x="0px" y="0px"
	 width="50px" height="50px" viewBox="0 0 50 50">
<g>
	<path fill="#FFF" d="M24.538,29.371c-0.703,0-1.138,0.471-1.138,1.16c0,0.443,0.413,0.912,0.999,1.48
		c0.923-0.554,1.162-1.054,1.229-1.406C25.762,29.883,25.243,29.371,24.538,29.371z"/>
	<path fill="#FFF" d="M22.828,37.91c0.676,0.717,1.529,0.531,2.551-0.146c-0.61-0.772-1.26-1.525-1.813-2.137
		C22.233,36.477,22.437,37.496,22.828,37.91z"/>
	<path fill="#FFF" d="M12.272,30.021c0-0.832-0.491-1.439-1.413-1.439H9.81v2.947h1.05
		C11.781,31.529,12.272,30.854,12.272,30.021z"/>
	<path fill="#FFFFFF" d="M11.076,34.494H9.81v3.244h1.267c0.933,0,1.494-0.721,1.494-1.656C12.57,35.15,12.009,34.494,11.076,34.494
		z"/>
	<path fill="#FFF" d="M37.977,29.002c-1.242,0-2.012,1.303-2.012,4.02c0,2.715,0.77,4.017,2.012,4.017
		c1.24,0,2.01-1.302,2.01-4.017C39.986,30.305,39.217,29.002,37.977,29.002z"/>
	<path fill="#FFFFFF" d="M0,0v50h50V0H0z M12.681,41.182H4.653V25.14h7.891c3.309,0,4.931,1.642,4.96,3.915
		c0.022,1.768-0.483,2.893-2.271,3.83c1.703,0.541,2.658,1.83,2.659,3.801C17.892,39.658,15.461,41.182,12.681,41.182z
		 M27.412,41.135c-0.057-0.297-0.217-0.662-0.438-1.066c-1.377,0.871-2.575,1.248-3.63,1.293c-2.601,0.111-4.672-1.446-4.5-4.209
		c0.096-1.539,1.308-2.731,2.714-3.635c-0.749-0.83-1.407-1.776-1.407-2.865c0-1.877,1.441-3.612,4.258-3.612
		c2.688,0,4.362,1.532,4.362,3.19c0,1.664-0.76,2.707-2.377,3.756c0.537,0.562,1.037,1.109,1.498,1.648
		c0.282-0.268,0.573-0.539,0.873-0.82l1.862,2.146c-0.335,0.351-0.657,0.67-0.978,0.972c0.774,1.174,1.287,2.256,1.432,3.205h-3.67
		V41.135z M45.75,41.166h-7.773c-4.483,0-7.093-3.027-7.093-8.145c0-4.853,2.607-8.113,7.093-8.113c4.838,0,7.512,2.869,7.321,8.012
		c-0.087,2.322-0.87,4.203-1.973,5.289h2.425V41.166z"/>
</g>
</svg>
