<svg version="1.1" xmlns="http://www.w3.org/2000/svg" xmlns:xlink="http://www.w3.org/1999/xlink" x="0px" y="0px"
	 width="50px" height="50px" viewBox="38.007 25.342 50 50">
<g>
	<g>
		<path fill="#FFF" d="M54.456,53.426c0-0.156-0.119-0.254-0.346-0.295h-2.697v0.764h3.043V53.426z"/>
		<rect x="51.413" y="54.838" fill="#FFFFFF" width="3.043" height="0.705"/>
		<path fill="#FFFFFF" d="M67.72,59.48h-6.657c-0.459,0-0.67,0.198-0.632,0.589v1.529c-0.038,0.275,0.23,0.411,0.804,0.411h6.484
			c0.305-0.039,0.478-0.175,0.515-0.411l0,0v-1.529C68.197,59.719,68.025,59.521,67.72,59.48z"/>
		<path fill="#FFF" d="M67.03,53.838c0-0.079-0.097-0.117-0.286-0.117h-4.878c0.919,0.861,1.836,1.489,2.753,1.88
			c0.537-0.235,1.282-0.725,2.241-1.468C67.009,54.013,67.067,53.916,67.03,53.838z"/>
		<rect x="47.51" y="54.838" fill="#FFF" width="2.87" height="0.705"/>
		<path fill="#FFF" d="M87.495,33.546c-0.021-1.108-0.938-2.033-2.046-2.063l-43.748-1.116c-0.019-0.001-0.036-0.001-0.053-0.001
			c-1.085,0.001-2.004,0.87-2.06,1.959L38.01,63.488c-0.06,1.053,0.745,1.953,1.797,2.014c0.04,0.002,0.08,0.003,0.121,0.003h46.098
			c1.095,0,1.981-0.887,1.981-1.981l0,0V63.49L87.495,33.546z M62.523,35.256c0.406-0.081,0.8,0.182,0.881,0.587
			c0.764,3.876,4.665,6.87,9.405,6.87c4.739,0,8.643-2.994,9.406-6.87c0.081-0.404,0.474-0.667,0.878-0.587c0.001,0,0.001,0,0.002,0
			c0.405,0.08,0.669,0.474,0.588,0.879c0,0,0,0,0,0.001c-0.95,4.692-5.52,8.073-10.874,8.073c-5.353,0-9.923-3.381-10.874-8.073
			C61.854,35.732,62.117,35.337,62.523,35.256z M57.791,51.601c0-0.821,0.48-1.252,1.435-1.292h4.492v-0.588
			c0-0.314,0.209-0.489,0.63-0.529c0.386,0.04,0.594,0.214,0.634,0.529v0.588h4.484c0.955,0.04,1.433,0.471,1.433,1.292v1.412
			c0,0.354-0.171,0.55-0.517,0.59c-0.344-0.04-0.534-0.215-0.572-0.529v-1.178c0.077-0.354-0.135-0.529-0.634-0.529h-9.663
			c-0.498,0-0.709,0.176-0.63,0.529v1.178c-0.04,0.314-0.23,0.489-0.574,0.529c-0.344-0.04-0.518-0.236-0.518-0.59V51.601z
			 M46.594,50.31h3.787v-0.706c0-0.236,0.17-0.372,0.516-0.411c0.305,0.04,0.479,0.175,0.517,0.411v0.706h2.983v-0.588
			c0-0.314,0.211-0.489,0.633-0.529c0.379,0.04,0.593,0.214,0.631,0.529v1.059c-0.038,0.311-0.191,0.489-0.459,0.526h-3.788v0.824
			h2.983c0.765-0.037,1.126,0.334,1.09,1.119v3.938c-0.037,0.314-0.21,0.49-0.515,0.529c-0.344-0.039-0.515-0.215-0.515-0.529
			v-0.704h-3.043v0.821c-0.039,0.276-0.211,0.434-0.517,0.473c-0.346-0.039-0.516-0.196-0.516-0.473v-0.821h-2.87v0.764
			c-0.038,0.313-0.211,0.491-0.515,0.53c-0.346-0.039-0.517-0.217-0.517-0.53v-4.058c0-0.666,0.362-1.021,1.09-1.059h2.812v-0.824
			h-3.787c-0.27,0-0.422-0.154-0.459-0.47C46.172,50.525,46.324,50.348,46.594,50.31z M45.157,53.54v9.116
			c-0.037,0.274-0.21,0.434-0.515,0.472c-0.343-0.038-0.516-0.198-0.516-0.472V53.54h-0.975c-0.307,0-0.517-0.167-0.517-0.503
			c0-0.324,0.191-0.498,0.517-0.498h0.975v-2.936c0-0.236,0.173-0.371,0.516-0.411c0.305,0.04,0.479,0.175,0.515,0.411v2.936h0.245
			c0.304,0,0.515,0.168,0.515,0.504c0,0.324-0.19,0.497-0.515,0.497H45.157z M50.537,61.332c-0.149,0.362-0.374,0.518-0.678,0.463
			l-1.151-0.361l-0.829-0.26c-0.292-0.09-0.397-0.348-0.311-0.772c0.148-0.362,0.374-0.519,0.68-0.463l0.777,0.243l1.201,0.379
			C50.52,60.65,50.624,60.906,50.537,61.332z M56.06,59.573h-1.895v2.085c0.078,1.41-0.859,1.801-2.809,1.175
			c-0.384-0.155-0.557-0.392-0.516-0.708c0.15-0.35,0.417-0.448,0.8-0.291c1.035,0.314,1.532,0.235,1.495-0.236v-2.024h-6.943
			c-0.384,0-0.593-0.157-0.631-0.472c0.038-0.313,0.246-0.49,0.631-0.529h6.943v-0.795c0-0.354,0.171-0.53,0.516-0.53
			c0.305,0,0.477,0.177,0.515,0.53v0.795h1.895c0.307,0.039,0.478,0.216,0.515,0.529C56.538,59.416,56.367,59.573,56.06,59.573z
			 M69.384,61.715c0.034,0.981-0.497,1.452-1.608,1.413h-7.173c-0.955,0.117-1.396-0.235-1.319-1.059V59.48
			c0-0.703,0.497-1.076,1.492-1.115h7.001c1.033,0.039,1.568,0.51,1.607,1.409V61.715z M70.876,58.424
			c-2.183-0.196-4.247-0.727-6.199-1.589c-1.951,0.862-4.13,1.393-6.541,1.589c-0.42,0.038-0.669-0.119-0.747-0.47
			c0-0.354,0.21-0.567,0.631-0.649c2.105-0.154,3.883-0.528,5.336-1.116c-0.88-0.392-1.684-0.979-2.409-1.765
			c-0.5,0.395-1.3,0.765-2.41,1.118c-0.422,0.159-0.708,0.059-0.86-0.293c-0.078-0.354,0.093-0.607,0.515-0.767
			c1.569-0.509,2.755-1.332,3.557-2.469c0.231-0.314,0.517-0.371,0.86-0.176c0.268,0.235,0.268,0.529,0,0.883h5.509
			c0.346,0.037,0.575,0.174,0.69,0.41c0.114,0.273,0.058,0.529-0.171,0.764c-0.769,0.863-1.667,1.609-2.698,2.238
			c1.108,0.468,2.772,0.842,4.99,1.114c0.305,0.08,0.46,0.293,0.46,0.646C71.353,58.285,71.179,58.462,70.876,58.424z
			 M85.993,61.835c-0.23,0.313-0.573,0.372-1.033,0.175c-2.024-0.979-3.804-2.624-5.335-4.547v5.193c0,0.393-0.21,0.607-0.63,0.648
			c-0.423-0.041-0.633-0.256-0.633-0.648v-5.193c-1.529,1.923-3.308,3.568-5.336,4.547c-0.461,0.197-0.806,0.139-1.031-0.175
			c-0.117-0.354,0.033-0.655,0.458-0.884c2.47-1.322,5.909-4.832,5.909-5.576v-3.832h-4.877c-0.383,0-0.593-0.195-0.63-0.588
			c0.037-0.391,0.247-0.605,0.63-0.645h4.876v-0.588c0-0.314,0.211-0.489,0.634-0.529c0.38,0.04,0.593,0.214,0.63,0.529v0.588h4.934
			c0.344,0.04,0.518,0.254,0.518,0.645c0,0.393-0.174,0.588-0.518,0.588h-4.934v3.232h-0.001v0.6c0,0.744,3.439,4.254,5.91,5.576
			C85.96,61.179,86.109,61.48,85.993,61.835z M75.638,51.889c0.323,0.03,0.564,0.319,0.539,0.653
			c-0.005,0.035-0.051,0.545-0.294,1.303c0.079,0.134,0.164,0.264,0.254,0.389c0.242,0.339,0.597,0.74,1.001,1.004
			c0.276,0.178,0.355,0.551,0.182,0.834c-0.112,0.18-0.304,0.279-0.497,0.279c-0.109,0-0.22-0.029-0.316-0.094
			c-0.494-0.328-0.877-0.738-1.166-1.107c-0.333,0.637-0.78,1.207-1.318,1.685c-0.004,0.004-0.008,0.007-0.013,0.011
			c-0.246,0.205-0.611,0.172-0.817-0.073c-0.214-0.254-0.187-0.633,0.063-0.853c0.694-0.617,1.083-1.299,1.374-2.058
			c0.132-0.343,0.237-0.695,0.313-1.054c0.052-0.254,0.061-0.369,0.062-0.371v0.003C75.03,52.107,75.316,51.86,75.638,51.889z
			 M83.369,54.319c0.308,0.374,0.735,0.819,1.149,1.085c0.275,0.184,0.355,0.553,0.183,0.834c-0.114,0.182-0.304,0.281-0.499,0.281
			c-0.108,0-0.217-0.032-0.316-0.096c-0.558-0.369-1.034-0.865-1.386-1.283c-0.226,0.393-0.488,0.732-0.854,1.119
			c-0.109,0.118-0.264,0.186-0.424,0.186c-0.147,0-0.294-0.057-0.409-0.169c-0.236-0.233-0.243-0.611-0.017-0.854
			c0.573-0.622,0.712-0.819,1.017-1.597c0.285-0.748,0.292-1.188,0.292-1.236v-0.002c-0.013-0.334,0.242-0.613,0.569-0.625
			c0.324-0.014,0.597,0.248,0.609,0.58l0,0v0.047c0,0.159-0.026,0.618-0.244,1.304C83.145,54.039,83.255,54.18,83.369,54.319z"/>
		<path fill="#FFF" d="M47.51,53.426v0.469h2.87v-0.764h-2.466C47.644,53.172,47.51,53.269,47.51,53.426z"/>
	</g>
	<g>
		<path fill="#FFF" d="M56.743,66.921h0.715v1.313h0.01c0.136-0.197,0.376-0.324,0.696-0.324c0.551,0,0.956,0.458,0.951,1.162
			c0,0.831-0.526,1.244-1.052,1.244c-0.271,0-0.529-0.1-0.694-0.371h-0.007l-0.029,0.318h-0.609c0.013-0.229,0.021-0.458,0.02-0.688
			V66.921L56.743,66.921z M57.458,69.285c0,0.047,0.005,0.088,0.015,0.127c0.046,0.193,0.211,0.338,0.417,0.338
			c0.307,0,0.495-0.236,0.495-0.65c0-0.357-0.159-0.639-0.495-0.639c-0.19,0-0.371,0.145-0.417,0.354
			c-0.01,0.043-0.016,0.088-0.015,0.131V69.285z M61.846,69.087c0,0.843-0.598,1.229-1.213,1.229c-0.674,0-1.193-0.445-1.193-1.188
			c0-0.744,0.487-1.219,1.227-1.219C61.375,67.91,61.846,68.396,61.846,69.087z M60.179,69.109c0,0.396,0.166,0.692,0.472,0.692
			c0.276,0,0.456-0.276,0.456-0.692c0-0.343-0.13-0.689-0.456-0.689C60.306,68.419,60.179,68.771,60.179,69.109z M64.577,69.087
			c0,0.843-0.601,1.229-1.215,1.229c-0.673,0-1.193-0.445-1.193-1.188c0-0.744,0.491-1.219,1.23-1.219
			C64.107,67.91,64.577,68.396,64.577,69.087z M62.91,69.109c0,0.396,0.163,0.692,0.469,0.692c0.281,0,0.459-0.276,0.459-0.692
			c0-0.343-0.133-0.689-0.459-0.689C63.037,68.419,62.91,68.771,62.91,69.109L62.91,69.109z M65.735,68.929h0.01
			c0.052-0.094,0.107-0.188,0.163-0.275l0.467-0.692h0.859l-0.82,0.933l0.938,1.369h-0.879l-0.555-0.947l-0.184,0.227v0.721h-0.717
			V66.92h0.717V68.929z M67.566,69.637c0.133,0.08,0.404,0.175,0.615,0.175c0.217,0,0.311-0.078,0.311-0.194
			s-0.073-0.175-0.342-0.263c-0.474-0.16-0.66-0.42-0.654-0.688c0-0.433,0.368-0.757,0.937-0.757c0.27,0,0.51,0.061,0.648,0.131
			l-0.126,0.496c-0.154-0.082-0.324-0.127-0.499-0.131c-0.174,0-0.274,0.067-0.274,0.188c0,0.106,0.09,0.162,0.373,0.26
			c0.438,0.152,0.62,0.375,0.627,0.713c0,0.429-0.339,0.75-1,0.75c-0.3,0-0.568-0.072-0.744-0.166L67.566,69.637z M69.929,70.316
			c-0.24,0-0.413-0.188-0.413-0.436c0-0.254,0.173-0.438,0.423-0.438s0.42,0.18,0.42,0.438c0,0.248-0.17,0.436-0.427,0.436H69.929z
			 M72.517,70.205c-0.126,0.059-0.365,0.111-0.64,0.111c-0.744,0-1.221-0.458-1.221-1.182c0-0.674,0.462-1.225,1.319-1.225
			c0.19,0,0.394,0.031,0.546,0.088l-0.112,0.532c-0.084-0.038-0.213-0.069-0.401-0.069c-0.375,0-0.62,0.268-0.617,0.643
			c0,0.426,0.283,0.646,0.633,0.646c0.17,0,0.302-0.027,0.409-0.074L72.517,70.205L72.517,70.205z M75.134,69.087
			c0,0.843-0.598,1.229-1.213,1.229c-0.675,0-1.192-0.445-1.192-1.188c0-0.744,0.49-1.219,1.228-1.219
			C74.662,67.91,75.134,68.396,75.134,69.087L75.134,69.087z M73.471,69.109c0,0.396,0.162,0.692,0.468,0.692
			c0.277,0,0.456-0.276,0.456-0.692c0-0.343-0.13-0.689-0.456-0.689C73.594,68.419,73.471,68.771,73.471,69.109z M75.576,68.697
			c0-0.29-0.01-0.533-0.021-0.735h0.604l0.033,0.312h0.016c0.099-0.146,0.302-0.363,0.696-0.363c0.296,0,0.532,0.148,0.629,0.391
			h0.01c0.079-0.113,0.181-0.209,0.299-0.28c0.126-0.075,0.269-0.11,0.437-0.11c0.443,0,0.779,0.311,0.779,0.999v1.354h-0.699V69.01
			c0-0.332-0.108-0.525-0.341-0.525c-0.163,0-0.28,0.114-0.328,0.25c-0.017,0.059-0.025,0.121-0.026,0.182v1.348h-0.699v-1.29
			c0-0.29-0.102-0.489-0.328-0.489c-0.182,0-0.292,0.141-0.335,0.258c-0.023,0.057-0.029,0.123-0.029,0.178v1.344h-0.695V68.697
			L75.576,68.697z M80.268,70.316c-0.235,0-0.412-0.188-0.412-0.436c0-0.254,0.177-0.438,0.423-0.438
			c0.249,0,0.418,0.18,0.418,0.438c0,0.248-0.169,0.436-0.422,0.436H80.268z M81.838,67.334v0.628h0.514v0.528h-0.514v0.831
			c0,0.278,0.063,0.407,0.281,0.407c0.101,0,0.143-0.006,0.211-0.021l0.005,0.542c-0.094,0.037-0.264,0.066-0.463,0.066
			c-0.232,0-0.427-0.088-0.537-0.206c-0.135-0.134-0.199-0.354-0.199-0.681V68.49h-0.307v-0.528h0.307v-0.433L81.838,67.334z
			 M83.281,67.962l0.184,0.94c0.048,0.235,0.096,0.493,0.132,0.758h0.011c0.045-0.265,0.113-0.525,0.168-0.752l0.244-0.947h0.568
			l0.229,0.918c0.062,0.258,0.124,0.517,0.17,0.781h0.008c0.035-0.265,0.082-0.522,0.133-0.785l0.196-0.914h0.702l-0.704,2.303
			h-0.673l-0.217-0.813c-0.06-0.234-0.108-0.473-0.147-0.713h-0.01c-0.032,0.241-0.082,0.479-0.148,0.713l-0.23,0.813h-0.673
			l-0.67-2.303L83.281,67.962L83.281,67.962z"/>
	</g>
</g>
</svg>
