<svg version="1.1" xmlns="http://www.w3.org/2000/svg" xmlns:xlink="http://www.w3.org/1999/xlink" x="0px" y="0px" width="50px" height="50px" viewBox="0 0 50 50">
<g>
	<path fill-rule="evenodd" clip-rule="evenodd" fill="#FFF" d="M4.422,11.545C2.561,9.59,1.847,7.306,2.599,4.719
		c1.375-4.732,7.293-6.281,10.836-2.789c0.837,0.824,1.421,0.823,2.391,0.434c6.13-2.457,12.284-2.458,18.411,0.025
		c0.885,0.358,1.476,0.413,2.263-0.382c2.534-2.562,6.341-2.655,8.926-0.374c2.678,2.361,3.08,6.114,0.847,9.018
		c-0.593,0.77-0.515,1.24-0.075,2.002c8.676,15.046,0.306,33.479-16.732,36.899c-13.794,2.77-27.707-7.68-29.009-21.679
		C-0.096,21.954,1.311,16.584,4.422,11.545z M6.474,22.387c0.022,2.938,1.161,5.326,3.632,6.959c1.76,1.165,3.634,0.635,4.235-1.351
		c0.949-3.138,2.803-5.655,4.897-8.059c0.971-1.114,1.37-2.352,0.794-3.789c-0.625-1.559-1.762-2.473-3.438-2.678
		C11.186,12.81,6.471,16.968,6.474,22.387z M43.42,23.152c-0.008-5.906-4.128-9.832-9.323-9.734
		c-1.947,0.037-3.363,0.805-4.19,2.598c-0.799,1.729-0.037,3.039,1.068,4.306c1.953,2.24,3.662,4.609,4.524,7.538
		c0.611,2.079,2.449,2.674,4.3,1.47C42.293,27.707,43.381,25.292,43.42,23.152z M30.757,31.729c-3.936,0-7.789,0-11.656,0
		c0.4,3.042,2.955,5.125,6.003,5.004C28.173,36.609,30.511,34.593,30.757,31.729z M37.76,3.821c2.235,1.941,4.414,3.832,6.591,5.722
		c1.791-2.09,1.69-4.534-0.331-6.3C42.181,1.637,39.521,1.884,37.76,3.821z M5.654,9.55c2.179-1.896,4.358-3.792,6.546-5.696
		c-1.395-1.896-4.208-2.268-6.113-0.715C4.09,4.767,3.933,7.539,5.654,9.55z M24.903,25.771c-1.085,0.176-2.217,0.319-3.331,0.553
		c-0.92,0.193-0.915,0.776-0.474,1.465c1.547,2.413,6.015,2.443,7.637,0.051c0.517-0.763,0.458-1.356-0.541-1.553
		C27.131,26.078,26.051,25.947,24.903,25.771z"/>
	<path fill-rule="evenodd" clip-rule="evenodd" fill="#FFF" d="M17.92,18.597c-0.879,0.675-1.396,1.377-1.886,1.359
		c-0.473-0.017-1.253-0.754-1.284-1.215c-0.029-0.441,0.691-1.261,1.156-1.318C16.396,17.361,16.973,18.006,17.92,18.597z"/>
	<path fill-rule="evenodd" clip-rule="evenodd" fill="#FFF" d="M36.247,18.777c-0.925,0.589-1.515,1.259-1.978,1.18
		c-0.498-0.085-0.877-0.871-1.309-1.351c0.48-0.424,0.943-1.154,1.447-1.183C34.88,17.396,35.396,18.111,36.247,18.777z"/>
</g>
</svg>
