<svg version="1.1" xmlns="http://www.w3.org/2000/svg" xmlns:xlink="http://www.w3.org/1999/xlink" x="0px" y="0px"
	 width="50px" height="50px" viewBox="0 0 50 50">
<g>
	<path fill-rule="evenodd" clip-rule="evenodd" fill="#FFF" d="M0,50C0,33.333,0,16.667,0,0c16.667,0,33.334,0,50,0
		c0,16.667,0,33.333,0,50C33.334,50,16.667,50,0,50z M27.535,24.695c0.067,0.024,0.135,0.049,0.203,0.073c0,1.163,0,2.326,0,3.489
		c0.001,0.663,0.359,1.052,0.995,1.052c0.622-0.001,1.024-0.359,1.024-1.03c0.004-2.21,0.008-4.42-0.01-6.63
		c-0.005-0.734-0.397-1.045-1.136-1.077c-0.831-0.036-1.084,0.625-1.433,1.143c-0.611,0.909-1.177,1.849-1.828,2.881
		c-0.254-0.371-0.418-0.598-0.569-0.834c-0.557-0.875-1.101-1.758-1.665-2.628c-0.34-0.524-0.883-0.719-1.425-0.5
		c-0.325,0.131-0.751,0.548-0.76,0.846c-0.063,2.312-0.069,4.628,0.007,6.939c0.01,0.313,0.559,0.823,0.89,0.851
		c0.334,0.027,0.765-0.384,1.042-0.701c0.15-0.172,0.086-0.547,0.089-0.83c0.008-0.992,0.003-1.984,0.003-2.977
		c0.565,0.552,0.955,1.127,1.352,1.696c0.676,0.974,1.291,0.98,1.996,0.01C26.732,25.888,27.127,25.287,27.535,24.695z
		 M10.569,24.893c-0.011,2.581,1.965,4.508,4.639,4.523c2.677,0.016,4.826-1.992,4.814-4.498c-0.012-2.47-2.058-4.406-4.693-4.44
		C12.654,20.443,10.579,22.368,10.569,24.893z M7.83,24.198c0,0.008,0,0.016,0,0.023c-0.417,0-0.835-0.028-1.248,0.007
		c-0.507,0.043-0.84,0.354-0.83,0.863c0.01,0.525,0.309,0.872,0.881,0.895c0.156,0.006,0.33-0.039,0.465,0.015
		c0.245,0.098,0.599,0.203,0.671,0.395c0.146,0.384,0.023,0.772-0.452,0.919c-1.112,0.344-2.466,0.271-3.241-0.814
		c-0.697-0.977-0.609-2.447,0.198-3.318c0.899-0.971,2.033-1.053,3.56-0.256c0.682,0.355,1.269,0.247,1.553-0.288
		c0.28-0.525,0.066-1.127-0.581-1.481c-1.614-0.884-3.296-0.946-4.94-0.165c-1.311,0.623-2.132,1.698-2.376,3.177
		c-0.598,3.613,2.588,5.853,5.751,5.125c2.389-0.549,2.629-0.904,2.637-3.322c0-0.078,0.001-0.155,0.001-0.233
		c0.003-1.213-0.321-1.545-1.504-1.539C8.194,24.198,8.012,24.198,7.83,24.198z M34.862,20.235
		c-0.498,0.433-0.973,0.678-1.192,1.068c-0.531,0.946-0.949,1.958-1.405,2.946c-0.554,1.2-1.114,2.396-1.64,3.608
		c-0.242,0.558-0.178,1.09,0.443,1.382c0.585,0.274,0.994-0.017,1.314-0.491c0.059-0.085,0.117-0.178,0.143-0.275
		c0.234-0.938,0.828-1.291,1.768-1.108c0.125,0.024,0.26,0.011,0.389,0c1.188-0.091,2.314-0.164,2.711,1.399
		c0.137,0.535,0.753,0.707,1.31,0.453c0.577-0.263,0.696-0.754,0.448-1.305c-1-2.221-1.988-4.448-3.052-6.638
		C35.908,20.884,35.381,20.657,34.862,20.235z M43.097,24.06c-0.002,0-0.004,0-0.007,0c0,0.754,0.021,1.508-0.005,2.261
		c-0.033,0.962-0.716,1.393-1.604,1.031c-0.24-0.098-0.462-0.237-0.689-0.362c-0.525-0.29-0.979-0.155-1.298,0.303
		c-0.33,0.475-0.24,0.993,0.216,1.316c1.122,0.796,2.352,1.037,3.688,0.552c1.138-0.412,1.729-1.266,1.794-2.407
		c0.096-1.684,0.098-3.375,0.081-5.063c-0.007-0.719-0.511-1.14-1.141-1.114c-0.62,0.026-1.015,0.477-1.03,1.222
		C43.085,22.551,43.097,23.305,43.097,24.06z M46.5,24.893c0.002,0,0.002,0,0.003,0c0,1.063-0.005,2.128,0.002,3.192
		c0.006,0.792,0.337,1.205,0.97,1.24c0.626,0.035,1.071-0.385,1.081-1.144c0.027-2.18,0.028-4.36,0.01-6.54
		c-0.006-0.715-0.419-1.091-1.068-1.061c-0.702,0.032-1.005,0.433-0.999,1.12C46.508,22.764,46.5,23.828,46.5,24.893z"/>
	<path fill-rule="evenodd" clip-rule="evenodd" fill="#FFF" d="M15.236,27.467c-1.445-0.01-2.46-1.057-2.45-2.527
		c0.011-1.533,1.047-2.586,2.516-2.558c1.434,0.029,2.489,1.158,2.468,2.643C17.75,26.492,16.728,27.477,15.236,27.467z"/>
	<path fill-rule="evenodd" clip-rule="evenodd" fill="#FFF" d="M33.836,25.484c0.342-0.795,0.644-1.497,1.021-2.375
		c0.373,0.857,0.683,1.568,1.033,2.375C35.19,25.484,34.572,25.484,33.836,25.484z"/>
</g>
</svg>
