<svg version="1.1" xmlns="http://www.w3.org/2000/svg" xmlns:xlink="http://www.w3.org/1999/xlink" x="0px" y="0px" width="50px" height="50px" viewBox="0 0 50 50">
		<g>
			<path fill="#FEFEFE" d="M35.232,34.302c-0.464-4.883-3.604-9.302-5.35-11.395L26.86,25.93L35.232,34.302z"/>
			<path fill="#FEFEFE" d="M48.953,3.837l-4.767,4.768c1.162,1.744,1.86,3.721,1.86,5.93c0,2.675-1.047,5.233-3.023,7.209
				c-0.116,0.116-6.628,6.512-6.628,13.838L48.14,47.326c1.163-1.396,1.86-3.14,1.86-5.117V7.791C50,6.395,49.651,5,48.953,3.837z"
				/>
			<path fill="#FEFEFE" d="M3.837,48.953C5,49.651,6.395,50,7.791,50h34.418c0.698,0,1.279-0.116,1.861-0.233L23.488,29.303
				L3.837,48.953z"/>
		</g>
		<path fill="#FEFEFE" d="M42.209,0H7.791C3.488,0,0,3.488,0,7.791v34.418c0,1.163,0.232,2.325,0.698,3.257L26.86,19.302
			c-0.813-1.511-1.163-3.14-1.163-4.768c0-2.674,1.046-5.232,3.023-7.209c1.977-1.977,4.418-3.023,7.21-3.023
			c1.744,0,3.371,0.465,4.768,1.163l4.883-4.884C44.534,0.232,43.372,0,42.209,0z M13.605,21.396c-4.187,0-7.559-3.372-7.559-7.558
			s3.373-7.558,7.559-7.558c1.977,0,3.837,0.813,5.116,2.093l-1.511,1.977c-0.814-1.046-2.093-1.628-3.604-1.628
			c-2.792,0-5.117,2.326-5.117,5.117c0,2.791,2.325,5.116,5.117,5.116c2.325,0,4.302-1.628,5-3.721h-5v-1.977h5.116h1.163h0.232
			h1.047c0,0.232,0,0.349,0,0.582C21.163,18.023,17.791,21.396,13.605,21.396z"/>
		<circle fill="#FEFEFE" cx="35.814" cy="14.535" r="3.837"/>
</svg>
