<svg version="1.1" xmlns="http://www.w3.org/2000/svg" xmlns:xlink="http://www.w3.org/1999/xlink" x="0px" y="0px"
	 width="50px" height="50px" viewBox="0 0 50 50">
<g>
	<path fill-rule="evenodd" clip-rule="evenodd" fill="#FFF" d="M34.594,14.603c1.306,0,2.611-0.005,3.917,0.001
		c0.837,0.004,1.11,0.28,1.116,1.129c0.008,1.169,0.007,2.338,0,3.508c-0.005,0.882-0.28,1.163-1.146,1.164
		c-2.572,0.004-5.145,0.004-7.717,0c-0.85-0.001-1.155-0.313-1.159-1.165c-0.005-1.169-0.005-2.338,0.001-3.508
		c0.004-0.819,0.309-1.125,1.13-1.129C32.022,14.599,33.309,14.603,34.594,14.603z"/>
	<g>
		<path fill-rule="evenodd" clip-rule="evenodd" fill="#FFFFFF" d="M24.997,0.006c4.329,0,8.657-0.02,12.986,0.009
			c1.756,0.012,3.508,0.185,5.154,0.863c3.798,1.564,5.989,4.421,6.615,8.457c0.176,1.13,0.23,2.288,0.233,3.434
			c0.019,8.365,0.021,16.729,0.001,25.094c-0.004,1.677-0.153,3.352-0.751,4.942c-1.509,4.011-4.423,6.318-8.634,6.947
			c-1.303,0.195-2.639,0.229-3.959,0.232c-8.15,0.02-16.301,0.021-24.451,0.001c-1.617-0.003-3.235-0.134-4.779-0.679
			c-4.111-1.451-6.481-4.373-7.165-8.648c-0.181-1.129-0.23-2.288-0.233-3.434c-0.019-8.364-0.021-16.729-0.001-25.094
			c0.004-1.716,0.158-3.43,0.788-5.052c1.522-3.924,4.404-6.188,8.538-6.831c1.167-0.182,2.365-0.225,3.549-0.232
			C16.924-0.011,20.96,0.006,24.997,0.006z M24.208,38.498c0.028-0.227,0.068-0.397,0.068-0.568c0.003-3.101,0.021-6.2-0.008-9.301
			c-0.013-1.435-0.806-2.147-2.267-2.147c-4.368-0.002-8.735-0.002-13.103,0c-1.513,0.001-2.271,0.752-2.275,2.258
			c-0.004,2.164-0.001,4.328-0.001,6.493c0,0.896,0.016,1.794-0.006,2.69c-0.011,0.456,0.153,0.624,0.614,0.591
			c0.504-0.036,1.013-0.008,1.52-0.008c1.528,0,1.528,0,1.528-1.531c0-2.086-0.008-4.173,0.015-6.259
			c0.002-0.189,0.194-0.536,0.31-0.541c0.986-0.044,1.976-0.025,3.018-0.025c0,0.272,0,0.483,0,0.694c0,2.34,0.014,4.68-0.011,7.019
			c-0.005,0.521,0.16,0.681,0.67,0.653c0.739-0.039,1.481-0.009,2.222-0.01c0.771-0.001,0.775-0.002,0.776-0.767
			c0.002-2.32,0.011-4.641-0.007-6.961c-0.004-0.475,0.141-0.666,0.631-0.646c0.74,0.031,1.482,0.02,2.222,0.005
			c0.378-0.008,0.515,0.141,0.506,0.52c-0.02,0.896-0.006,1.794-0.006,2.69c0,1.541-0.009,3.081,0.013,4.621
			c0.003,0.179,0.174,0.504,0.275,0.508C22.001,38.513,23.09,38.498,24.208,38.498z M15.466,11.496
			c-2.262,0-4.524-0.004-6.786,0.002C7.467,11.5,6.64,12.279,6.632,13.493c-0.021,3.159-0.002,6.317-0.013,9.476
			c-0.001,0.438,0.169,0.575,0.593,0.559c0.721-0.027,1.443-0.007,2.164-0.007c0.903,0,0.904,0,0.904-0.876c0-2.242,0-4.485,0-6.727
			c0-0.81,0.001-0.81,0.838-0.81c0.565,0,1.131,0,1.696,0c0.807,0,0.808,0.001,0.808,0.779c0,2.301,0.021,4.602-0.014,6.902
			c-0.009,0.608,0.186,0.782,0.768,0.743c0.699-0.047,1.403-0.011,2.105-0.011c0.795-0.001,0.797-0.001,0.798-0.81
			c0.001-2.301,0.019-4.602-0.012-6.902c-0.008-0.577,0.181-0.748,0.734-0.711c0.66,0.042,1.327,0.042,1.987,0
			c0.535-0.035,0.652,0.175,0.647,0.673c-0.023,2.359,0.006,4.719-0.022,7.078c-0.007,0.552,0.174,0.708,0.7,0.682
			c0.798-0.038,1.599-0.025,2.398-0.003c0.391,0.011,0.571-0.108,0.569-0.521c-0.01-3.159,0.018-6.318-0.022-9.476
			c-0.018-1.351-0.812-2.032-2.183-2.033C19.873,11.494,17.669,11.496,15.466,11.496z M34.631,11.496
			c-2.145,0-4.289-0.003-6.435,0.001c-1.22,0.003-2.042,0.782-2.05,1.989c-0.017,2.671-0.016,5.342-0.001,8.013
			c0.007,1.212,0.82,2.015,2.034,2.017c4.289,0.008,8.579,0.009,12.868,0c1.212-0.002,2.01-0.813,2.013-2.027
			c0.009-2.652,0.008-5.303,0.001-7.955c-0.004-1.249-0.8-2.033-2.055-2.037C38.881,11.492,36.756,11.496,34.631,11.496z
			 M34.597,38.506c2.105,0,4.211,0.002,6.316-0.001c1.375-0.002,2.147-0.761,2.149-2.121c0.004-2.593,0.005-5.186,0-7.779
			c-0.002-1.329-0.78-2.12-2.099-2.122c-4.23-0.005-8.462-0.005-12.693,0c-1.326,0.002-2.124,0.787-2.128,2.103
			c-0.009,2.612-0.009,5.226,0,7.838c0.005,1.296,0.793,2.078,2.078,2.081C30.346,38.51,32.471,38.506,34.597,38.506z"/>
		<path fill-rule="evenodd" clip-rule="evenodd" fill="#FFFFFF" d="M32.69,34.254c-0.954,0.401-1.231,1.098-0.998,2.28
			c-1-0.238-2.19-1.723-2.345-2.928c-0.172-1.349,0.229-2.506,1.195-3.454c1.029-1.009,2.259-1.827,3.687-1.829
			c2.125-0.003,3.938,0.871,5.114,2.758c0.669,1.075,0.752,2.236,0.346,3.426c-0.351,1.026-1.049,1.725-2.1,2.021
			c-1.118,0.315-2.24,0.271-3.33-0.125C33.302,36.054,32.697,35.395,32.69,34.254z"/>
	</g>
</g>
</svg>
