<svg version="1.1" xmlns="http://www.w3.org/2000/svg" xmlns:xlink="http://www.w3.org/1999/xlink" x="0px" y="0px"
	 width="100%" viewBox="0 0 50 50">
<path fill="#FEFEFE" d="M41.734,0H8.266C3.659,0,0,3.659,0,8.266v33.469C0,46.342,3.659,50,8.266,50h33.469
	C46.342,50,50,46.342,50,41.734V8.266C50,3.659,46.342,0,41.734,0z M34.824,14.363h4.471l-1.084,4.607h0.136
	c0.407-0.407,0.948-0.813,1.491-1.084c0.541-0.271,1.219-0.271,1.896-0.271c0.949,0,1.626,0.135,2.033,0.542
	c0.406,0.406,0.541,0.948,0.271,1.626l-1.084,3.93h-4.472l0.813-2.981c0.137-0.271,0.137-0.542,0-0.678c-0.063,0-0.229,0-0.406,0
	c-0.271,0-0.542,0-0.678,0.136c-0.135,0.135-0.271,0.271-0.406,0.542l-0.813,2.981h-4.607L34.824,14.363z M31.572,14.363
	l-2.439,9.35h-4.336l2.303-6.504h-0.541l-4.878,7.317h9.621l-0.678,2.71h-2.439l-1.219,3.93h-4.201l1.084-3.93h-7.453l0.678-2.71
	l7.453-10.163H31.572z M4.607,28.455c0.136-0.678,0.542-1.355,1.084-2.032c0.542-0.678,1.491-1.626,2.981-2.71
	c0.271-0.271,0.813-0.542,1.355-1.084c2.439-1.897,3.794-3.252,3.93-3.93l0.542-1.355c0.136-0.271,0-0.542,0-0.678
	c-0.135-0.135-0.271-0.135-0.542-0.135s-0.542,0-0.677,0.135c-0.136,0.136-0.271,0.271-0.407,0.678l-0.542,2.168H7.182l0.271-1.084
	c0.406-1.491,1.219-2.575,2.304-3.252c1.084-0.678,2.71-0.949,5.013-0.949c2.033,0,3.388,0.271,4.201,0.949
	c0.813,0.677,1.084,1.626,0.677,2.845c-0.406,1.491-2.168,3.388-5.42,5.962c-0.542,0.542-1.084,0.813-1.355,1.084
	c-1.084,0.948-2.168,1.761-2.574,2.439c-0.407,0.406-0.542,0.813-0.542,0.813h7.181l-0.813,2.846H3.93L4.607,28.455z M4.472,45.528
	l4.878-8.808l14.77-1.896l-5.691,10.84L4.472,45.528z M40.379,49.322H24.932H9.35v-2.98h9.756l5.827-11.247l5.827,11.247h9.62
	V49.322z M31.437,45.664l-5.691-10.84l14.771,1.896l4.742,8.808L31.437,45.664z M46.07,28.861H31.029l0.271-0.813h15.041
	L46.07,28.861z M46.477,27.236H31.572l0.135-0.949h15.041L46.477,27.236z M47.154,25.474H31.979l0.271-0.948h15.04L47.154,25.474z"
	/>
</svg>
