<svg version="1.1" xmlns="http://www.w3.org/2000/svg" xmlns:xlink="http://www.w3.org/1999/xlink" x="0px" y="0px"
	 width="100%" viewBox="275 275 50 50">
<g>
	<path fill="#FEFEFE" d="M317.661,300.098c-0.513,0-0.945,0.275-1.143,0.788h1.97C318.489,300.413,318.134,300.098,317.661,300.098z
		"/>
	<path fill="#FEFEFE" d="M283.664,297.38h-0.394l-0.354,2.246h0.394c0.788,0,1.576,0,1.773-1.104
		C285.24,297.38,284.531,297.38,283.664,297.38z"/>
	<path fill="#FEFEFE" d="M302.731,300.453c-0.67,0-1.182,0.512-1.26,1.143c-0.119,0.63,0.196,1.143,0.905,1.143
		s1.143-0.513,1.261-1.143C303.755,300.965,303.401,300.453,302.731,300.453z"/>
	<path fill="#FEFEFE" d="M313,275h-26c-6.627,0-12,5.373-12,12v26c0,6.627,5.373,12,12,12h26c6.627,0,12-5.373,12-12v-26
		C325,280.372,319.627,275,313,275z M283.94,301.516h-1.261l-0.473,2.993H280l1.379-9.02h3.427c1.813,0,2.955,0.866,2.64,2.954
		C287.092,300.571,285.87,301.516,283.94,301.516z M292.213,297.616c-1.3,0-2.324,1.063-2.521,2.403
		c-0.197,1.379,0.512,2.363,1.852,2.363c0.103,0,0.206-0.004,0.309-0.03l0.007-0.048c0.551-0.079,1.142-0.395,1.576-0.867
		l-0.354,2.68c-0.591,0.197-1.024,0.354-1.537,0.393c-0.158,0-0.275,0-0.394,0.04c-1.143,0-2.127-0.473-2.836-1.261
		c-0.749-0.866-0.985-1.969-0.788-3.27c0.157-1.182,0.749-2.324,1.654-3.151c0.946-0.906,2.167-1.418,3.31-1.418
		c0.158,0,0.315,0.04,0.473,0.04l-0.003,0.017c0.478,0.079,0.895,0.192,1.342,0.417l-0.434,2.679
		c-0.275-0.552-0.748-0.827-1.3-0.945l0.001-0.007C292.462,297.62,292.353,297.616,292.213,297.616z M299.186,301.044l-0.473,3.112
		h-1.694l0.394-2.6c0.079-0.592,0.118-1.222-0.551-1.222c-0.67,0-0.985,0.591-1.064,1.222l-0.394,2.6h-1.733l1.221-8.194l1.694-0.04
		l-0.552,3.782c0.473-0.551,0.985-0.788,1.655-0.788C298.909,298.916,299.343,299.744,299.186,301.044z M305.449,301.556
		c-0.275,1.693-1.773,2.678-3.31,2.678s-2.758-0.945-2.481-2.678c0.275-1.695,1.772-2.68,3.309-2.68
		C304.504,298.877,305.686,299.862,305.449,301.556z M314.235,300.926l-0.513,3.23h-1.694l0.395-2.443
		c0.078-0.512,0.236-1.378-0.512-1.378c-0.789,0-0.906,0.788-1.025,1.378l-0.394,2.443h-1.694l0.395-2.443
		c0.078-0.551,0.236-1.457-0.512-1.457s-0.867,0.867-0.985,1.457l-0.394,2.443h-1.694l0.749-5.082h1.693l-0.039,0.63
		c0.512-0.551,1.023-0.788,1.615-0.788c0.67,0,1.26,0.315,1.496,0.985c0.434-0.63,1.104-0.985,1.773-0.985
		C314.115,298.916,314.432,299.744,314.235,300.926z M319.947,301.713v0.158h-3.585c-0.078,0.748,0.236,1.143,0.906,1.143
		c0.354,0,0.63-0.118,0.866-0.473h1.615c-0.434,1.221-1.575,1.733-2.679,1.733c-1.576,0-2.639-0.946-2.363-2.679
		c0.236-1.655,1.496-2.679,3.033-2.679C319.434,298.916,320.222,299.98,319.947,301.713z"/>
	<path fill="#FEFEFE" d="M292.958,295.506c-0.026-0.004-0.049-0.012-0.076-0.017l-0.314,2.159c0.013,0.003,0.026,0.003,0.039,0.007
		L292.958,295.506z"/>
	<path fill="#FEFEFE" d="M291.897,302.344c-0.015,0.005-0.031,0.005-0.046,0.009l-0.309,2.157L291.897,302.344z"/>
</g>
</svg>
