<svg version="1.1" id="Capa_1" xmlns="http://www.w3.org/2000/svg" xmlns:xlink="http://www.w3.org/1999/xlink" x="0px" y="0px"
	 width="50px" height="50px" viewBox="0 0 50 50">
<g>
	<path fill="#FFF" d="M29.998,29.77c2.792,0.18,3.576-1.065,2.939-3.934c-0.44-1.98-1.453-3.717-2.887-5.154
		c-0.714-0.719-0.768-1.379-0.429-2.302c0.862-2.343,1.616-4.726,2.46-7.229c-1.753,0-3.294,0-5.01,0c0,0.426,0,0.82,0,1.215
		c0,7.906,0.008,15.813-0.018,23.72c-0.003,0.464-0.211,1.281-0.437,1.323c-0.78,0.146-1.623,0.083-2.415-0.053
		c-0.163-0.026-0.299-0.713-0.301-1.097c-0.024-3.024-0.016-6.05-0.016-9.075c0-5.879-0.002-11.757,0-17.636
		c0-1.33,0.15-1.495,1.467-1.5c2.611-0.01,5.226-0.015,7.838,0.004c1.641,0.013,2.83,1.658,2.287,3.199
		c-0.832,2.364-1.685,4.726-2.61,7.054c-0.312,0.781-0.271,1.27,0.354,1.887c2.438,2.401,3.41,5.343,2.935,8.736
		c-0.335,2.393-1.651,3.658-4.068,3.906c-0.782,0.081-1.577,0.092-2.366,0.072c-1.3-0.029-1.01-1.04-1.063-1.818
		c-0.055-0.799,0.182-1.369,1.13-1.32C29.861,29.771,29.93,29.764,29.998,29.77z"/>
	<path fill="#FFF" d="M9.498,36.502c0-0.249,0.023-0.486-0.005-0.721c-0.108-0.93,0.112-1.486,1.179-1.762
		c0.635-0.164,1.381-0.807,1.612-1.41c0.394-1.021,0.459-2.182,0.586-3.291c0.085-0.738-0.38-1.028-1.084-1.024
		c-1.577,0.009-3.155,0.03-4.731-0.013c-0.664-0.02-0.813,0.277-0.82,0.853c-0.016,1.062-0.068,2.124-0.116,3.185
		C6.002,34.88,6.884,35.991,9.498,36.502z M16.327,29.613c0.103,3.484-1.103,6.257-4.671,7.84c2.558,0.763,4.935,1.473,7.343,2.191
		c-0.308,1.969-1.19,3.547-2.522,4.918c-0.23,0.236-0.27,0.66-0.396,0.996c0.385,0.045,0.835,0.239,1.145,0.107
		c2.32-0.988,4.283-2.477,5.805-4.495c0.393-0.521,0.773-0.589,1.393-0.522c3.758,0.41,7.516,0.813,11.283,1.104
		c2.1,0.161,3.042-0.506,3.824-2.425c3.41-8.375,5.109-17.095,5.225-26.132c0.018-1.367-0.533-2.401-1.712-3.071
		c-0.594-0.338-1.222-0.631-1.86-0.872c-5.845-2.206-11.867-3.729-18.07-4.449c-2.827-0.328-5.687-0.416-8.534-0.513
		c-1.175-0.039-2.356,0.397-2.856,1.528c-0.939,2.123-1.695,4.328-2.599,6.687c0.758-0.092,1.259-0.147,1.759-0.214
		c1.982-0.266,2.021-0.311,2.023-2.301c0-0.412-0.073-0.852,0.041-1.229c0.094-0.306,0.373-0.699,0.65-0.779
		c1.954-0.568,2.696,0,2.748,2.021c0.002,0.068,0.004,0.139,0,0.207c-0.041,0.622,0.287,0.818,0.834,0.668
		c0.693-0.191,1.381-0.414,2.061-0.656c1.992-0.713,1.967-0.709,2.865,1.209c0.287,0.607,0.109,0.9-0.453,1.08
		c-0.851,0.271-1.7,0.545-2.561,0.788c-3.236,0.921-2.681,0.115-2.754,3.765c-0.016,0.762,0.311,1.06,1.041,1.049
		c1.204-0.014,2.408-0.012,3.612,0.004c1.153,0.015,1.364,0.244,1.368,1.414c0.002,1.195-0.207,1.445-1.322,1.465
		c-1.204,0.021-2.409,0.035-3.611,0c-0.811-0.025-1.123,0.318-1.089,1.105c0.033,0.754,0.037,1.514,0.001,2.27
		c-0.04,0.814,0.355,1.111,1.115,1.104c1.271-0.012,2.546,0.012,3.818-0.002c1.063-0.012,1.088,0.698,1.094,1.473
		c0.007,0.777-0.145,1.369-1.111,1.353c-1.203-0.021-2.408,0.035-3.611-0.015C16.657,28.243,16.297,28.62,16.327,29.613z
		 M10.236,25.469c2.775-0.033,2.701,0.516,2.66-2.873c-0.01-0.726-0.348-1.076-1.063-1.078c-1.374-0.006-2.749-0.033-4.121,0.015
		c-0.235,0.009-0.616,0.315-0.662,0.54c-0.214,1.068-0.335,2.156-0.513,3.4C7.911,25.471,9.074,25.482,10.236,25.469z M50,5v40
		c0,2.75-2.25,5-5,5H5c-2.75,0-5-2.25-5-5V5c0-2.75,2.25-5,5-5h40C47.75,0,50,2.25,50,5z M12.825,17.912
		c0.106-0.771,0.101-1.575,0.007-2.35c-0.029-0.25-0.498-0.664-0.721-0.635c-1.217,0.152-2.604,0.133-3.561,0.75
		c-0.613,0.398-0.586,1.791-0.843,2.738c-0.008,0.029,0.015,0.066,0.06,0.264c1.435,0,2.869,0.041,4.299-0.033
		C12.344,18.632,12.785,18.197,12.825,17.912z"/>
</g>
</svg>
