<svg version="1.1" id="Capa_1" xmlns="http://www.w3.org/2000/svg" xmlns:xlink="http://www.w3.org/1999/xlink" x="0px" y="0px"
	 width="100%" viewBox="5.367 5.366 50 50">
<path fill="#3C5A99" d="M25.556,36.004v-7.547h6.516v-5.565c0-6.458,3.942-9.975,9.704-9.975c2.762,0,5.13,0.207,5.821,0.296v6.75
	l-3.996,0.001c-3.133,0-3.737,1.49-3.737,3.673v4.818h7.475l-0.979,7.546h-6.497v19.363h4.507
	c6.069-0.021,10.985-4.943,10.996-11.016V16.383c-0.011-6.08-4.937-11.005-11.016-11.016H16.384
	C10.298,5.378,5.367,10.313,5.367,16.403v27.927c0,6.095,4.941,11.037,11.036,11.037h15.669V36.004H25.556z"/>
</svg>
