<?xml version="1.0" encoding="utf-8"?>
<!-- Generator: Adobe Illustrator 16.0.0, SVG Export Plug-In . SVG Version: 6.00 Build 0)  -->
<!DOCTYPE svg PUBLIC "-//W3C//DTD SVG 1.1//EN" "http://www.w3.org/Graphics/SVG/1.1/DTD/svg11.dtd">
<svg version="1.1" id="圖層_1" xmlns="http://www.w3.org/2000/svg" xmlns:xlink="http://www.w3.org/1999/xlink" x="0px" y="0px"
	 width="50px" height="50px" viewBox="0 0 50 50" enable-background="new 0 0 50 50" xml:space="preserve">
<g>
	<path fill="#D04247" d="M19.999,16.399c3.334,0,6.668,0,10.001,0c0.431,0,0.548-0.172,0.489-0.546
		c-0.145-0.832-0.232-1.693-0.458-2.5c-0.117-0.374-0.174-0.748-0.319-1.122c-0.399-1.319-0.975-2.584-2.039-3.504
		c-1.233-1.092-2.759-1.382-4.395-0.601c-1.727,0.803-2.475,2.382-3.048,4.08c-0.433,1.176-0.487,2.412-0.719,3.621
		C19.453,16.227,19.568,16.399,19.999,16.399z"/>
	<path fill="#D04247" d="M35.881,0.001H14.118C6.32,0.001,0,6.32,0,14.116v21.765c0,7.796,6.32,14.118,14.118,14.118h21.763
		C43.679,49.999,50,43.677,50,35.881V14.116C50,6.32,43.679,0.001,35.881,0.001z M41.822,21.754
		c-0.086,1.088-0.172,2.181-0.23,3.273c-0.087,1.496-0.229,2.987-0.315,4.482c-0.086,1.235-0.202,2.441-0.231,3.677
		c0,0.059,0,0.146-0.059,0.202c-0.172,2.268-0.258,4.512-0.546,6.751c-0.2,1.583-0.918,2.902-2.471,3.654
		c-0.803,0.341-1.663,0.37-2.526,0.37c-7.155,0-14.31,0-21.435,0c-0.719,0-1.382-0.059-2.042-0.345
		C10.301,43.101,9.669,41.635,9.496,40c-0.143-1.466-0.201-2.932-0.314-4.398c-0.261-3.276-0.518-6.579-0.721-9.852
		c-0.115-1.785-0.315-3.537-0.374-5.344c-0.027-0.836-0.172-1.642-0.172-2.474c0-0.286,0.059-0.517,0.23-0.748
		c0.345-0.546,0.863-0.744,1.467-0.744c2.44,0,4.854,0,7.297,0c0.574,0,0.574,0,0.633-0.576c0.115-1.209,0.316-2.357,0.603-3.508
		c0.027-0.63,0.345-1.206,0.574-1.781c0.519-1.206,1.178-2.357,2.186-3.218c1.695-1.462,3.62-1.84,5.775-1.264
		c0.747,0.202,1.38,0.604,1.982,1.063c0.517,0.374,0.891,0.891,1.292,1.407c0.057,0.117,0.115,0.205,0.202,0.319
		c0.316,0.399,0.573,0.832,0.804,1.29c0.261,0.807,0.662,1.525,0.863,2.357c0.259,1.067,0.489,2.126,0.547,3.222
		c0.027,0.458,0.17,0.66,0.688,0.66c2.385-0.03,4.796,0,7.182-0.03c0.775,0,1.381,0.257,1.753,0.975
		c0.115,0.172,0.086,0.374,0.088,0.576C42.081,19.222,41.908,20.486,41.822,21.754z"/>
	<path fill="#D04247" d="M30.471,31.922c-0.145-0.172-0.26-0.345-0.402-0.517c-0.144-0.286-0.374-0.429-0.604-0.604
		c-0.403-0.316-0.805-0.631-1.294-0.803c-0.832-0.43-1.725-0.689-2.615-1.008c-0.632-0.287-1.351-0.459-1.98-0.803
		c-0.231-0.231-0.577-0.231-0.805-0.488c-0.145-0.088-0.29-0.201-0.433-0.318c-0.632-0.572-1.094-1.262-1.035-2.152
		c0.115-1.323,1.407-2.676,2.703-2.903c1.292-0.231,2.527-0.059,3.732,0.458c0.489,0.202,0.979,0.433,1.467,0.634
		c0.287,0.114,0.546-0.059,0.69-0.257c0.144-0.205,0.114-0.432-0.115-0.663c-0.145-0.143-0.288-0.29-0.462-0.374
		c-2.153-1.151-4.395-1.525-6.692-0.575c-1.007,0.403-1.782,1.151-2.185,2.214c-0.058,0.201-0.2,0.403-0.259,0.634
		c-0.315,1.177-0.027,2.21,0.604,3.214c0.345,0.605,0.948,0.949,1.494,1.353c0.718,0.458,1.493,0.748,2.298,1.005
		c1.093,0.344,2.214,0.688,3.192,1.293c1.436,0.865,2.298,1.954,1.925,3.794c-0.173,0.374-0.317,0.773-0.633,1.093
		c-0.603,0.63-1.351,0.975-2.155,1.205c-1.033,0.286-2.07,0.231-3.103,0c-0.26-0.172-0.575-0.029-0.807-0.201
		c-0.891-0.315-1.754-0.719-2.497-1.294c-0.376-0.144-0.691-0.173-0.922,0.202c-0.257,0.398,0.086,0.601,0.287,0.832
		c0.317,0.348,0.775,0.49,1.12,0.78c0.317,0.257,0.72,0.341,1.094,0.513c0.315,0.202,0.689,0.231,1.034,0.315
		c1.15,0.319,2.327,0.433,3.506,0.231c0.69-0.029,1.321-0.257,1.953-0.547c0.146-0.084,0.315-0.172,0.46-0.256
		c0.977-0.605,1.582-1.438,1.926-2.533c0.173-0.715,0.231-1.434,0.085-2.151C30.901,32.783,30.786,32.325,30.471,31.922z"/>
</g>
</svg>
