<svg version="1.1" xmlns="http://www.w3.org/2000/svg" xmlns:xlink="http://www.w3.org/1999/xlink" x="0px" y="0px"
	 width="50px" height="50px" viewBox="0 0 50 50">
<g>
	<path fill="#FFF" d="M25.059,16.646h-3.351V25h3.351c2.296,0,4.177-1.882,4.177-4.176S27.354,16.646,25.059,16.646z"/>
	<path fill="#FFF" d="M25,0C11.175,0,0.001,11.176,0.001,24.999C0.001,38.825,11.175,50,25,50
		c13.824,0,24.999-11.175,24.999-25.001C49.999,11.176,38.824,0,25,0z M31.532,38.47l-6.239-8.352h-3.585v8.352h-5.122V11.588H25
		c5.118,0,9.296,4.176,9.296,9.293c0,3.118-1.53,5.823-3.881,7.529l7.527,10.059H31.532z"/>
</g>
</svg>
