<svg version="1.1" xmlns="http://www.w3.org/2000/svg" xmlns:xlink="http://www.w3.org/1999/xlink" x="0px" y="0px"
	 width="100%" viewBox="0 0 50 50">
<g>
	<path fill="#FEFEFE" d="M24.365,34.239c-0.417,0.085-0.749,0.268-0.983,0.555c-0.181,0.257-0.267,0.555-0.267,0.897l0.009,0.138
		c0.086,0.386,0.247,0.685,0.513,0.921c0.631,0.395,2.36,0.492,9.901-2.426l0.106-0.096l0.161,0.063
		c1.933,1.111,4.71,1.943,8.267,2.458c0.374,0.03,0.718-0.055,1.037-0.257c0.268-0.183,0.447-0.449,0.533-0.831c0,0,0,0,0-0.013
		c0-0.033,0-0.149,0-0.149c0.012-0.319-0.075-0.588-0.255-0.822c-0.203-0.289-0.535-0.47-0.994-0.522
		c-1.836-0.269-3.664-0.728-5.427-1.349l-0.374-0.127l0.855-0.597c0.961-0.654,1.794-1.476,2.468-2.458
		c0.49-0.692,0.737-1.388,0.737-2.05l-0.022-0.363c-0.118-0.792-0.684-1.283-1.709-1.442h-8.417c-0.961,0-1.986,0.544-3.033,1.623
		l-0.011,0.011c-0.887,0.834-1.88,1.399-2.948,1.677c-0.383,0.171-0.651,0.427-0.801,0.79c-0.117,0.29-0.106,0.643,0.032,1.037
		c0.118,0.298,0.364,0.521,0.716,0.641c0.598,0.257,1.613-0.119,3.13-1.133c0.042-0.031,0.213-0.171,0.213-0.171l0.129,0.106
		c0.758,0.643,1.58,1.271,2.584,1.966l0.331,0.224l-0.385,0.129C28.733,33.268,26.673,33.803,24.365,34.239z M29.503,28.621
		c0.608-0.565,1.163-0.907,1.644-1.038h5.746c0.312,0,0.503,0.119,0.578,0.343c0.074,0.236,0.053,0.525-0.075,0.877
		c-0.459,0.631-1.697,1.548-3.718,2.766C32.301,30.779,30.912,29.796,29.503,28.621z"/>
	<polygon fill="#FEFEFE" points="34.085,19.527 35.739,23.704 38.763,23.704 35.271,16.782 32.898,16.782 29.428,23.704 
		32.439,23.704 	"/>
	<path fill="#FEFEFE" d="M10.553,35.222c-0.8,0-1.313,0.364-1.313,0.993v7.456c-0.524,0.043-0.993,0.075-1.517,0.116
		c-0.684,0.086-1.121,0.48-1.121,1.164v0.236C6.72,46.021,7.2,46.341,7.84,46.341h0.235c4.785-0.514,10.447-1.56,14.474-2.67
		c0.598-0.162,0.993-0.557,0.993-1.153c0.022-0.118,0.022-0.277-0.022-0.396c-0.16-0.6-0.438-0.877-0.961-0.877
		c-0.16,0-0.352,0.045-0.556,0.086c-1.399,0.396-2.948,0.759-4.539,1.08v-3.662h4.272c0.598,0,0.917-0.481,0.917-1.156
		c0-0.599-0.32-0.993-0.917-0.993h-4.272v-2.713h2.189c2.04,0,2.992-0.831,2.992-2.83v-2.553c0-2.039-0.919-2.832-2.992-2.832
		h-7.776c-2.072,0-2.989,0.792-2.989,2.832v2.553c0,1.999,0.875,2.83,2.947,2.83h3.065v8.994c-0.203,0.043-0.396,0.074-0.598,0.118
		c-0.791,0.115-1.634,0.276-2.436,0.353v-7.137C11.868,35.574,11.313,35.222,10.553,35.222z M12.434,31.762
		c-0.801,0-1.079-0.16-1.079-0.878v-2.145c0-0.717,0.32-0.878,1.121-0.878h6.58c0.759,0,1.122,0.161,1.122,0.878v2.145
		c0,0.718-0.396,0.878-1.153,0.878H12.434z"/>
	<polygon fill="#FEFEFE" points="15.82,19.527 17.475,23.704 20.498,23.704 17.006,16.782 14.635,16.782 11.173,23.704 
		14.176,23.704 	"/>
	<path fill="#FEFEFE" d="M27.943,37.208c-0.652-0.032-1.239,0.213-1.731,0.727l-0.01,0.012c-0.385,0.448-0.587,0.981-0.587,1.58
		v4.294c-0.033,0.631,0.192,1.176,0.651,1.611c0.396,0.376,0.962,0.567,1.656,0.601h11.663c0.642,0,1.164-0.225,1.57-0.652
		c0.396-0.493,0.608-0.993,0.63-1.538v-4.315c0.022-0.556-0.17-1.091-0.556-1.571c-0.405-0.501-0.95-0.747-1.633-0.747H27.943z
		 M38.933,43.787c-0.095,0.098-0.298,0.184-0.575,0.226h-9.111c-0.31,0-0.545-0.064-0.727-0.192
		c-0.182-0.106-0.267-0.321-0.267-0.653V40.22c0-0.33,0.074-0.585,0.224-0.759c0.182-0.18,0.428-0.255,0.77-0.232h9.111
		c0.256,0,0.459,0.084,0.607,0.266c0.106,0.181,0.171,0.428,0.193,0.726l0.011,2.959C39.169,43.436,39.094,43.64,38.933,43.787z"/>
	<path fill="#FEFEFE" d="M41.485,8.337h-14.91V6.223h14.228c0.726,0,1.176-0.534,1.176-1.303c0-0.811-0.45-1.26-1.176-1.26H9.187
		c-0.727,0-1.175,0.449-1.175,1.26c0,0.769,0.459,1.303,1.175,1.303h14.099v2.115H8.557C6.261,8.337,5,9.235,5,11.264v11.643
		c0,0.993,0.63,1.357,1.623,1.357c0.994,0,1.624-0.364,1.624-1.357V11.723c0-0.769,0.491-1.036,1.345-1.036h13.694v14.569
		c0,1.036,0.673,1.303,1.666,1.303c0.993,0,1.623-0.267,1.623-1.303V10.688h13.778c0.866,0,1.357,0.277,1.357,1.036v11.269
		c0,0.993,0.716,1.303,1.708,1.303c0.95,0,1.581-0.31,1.581-1.303V11.264C45,9.235,43.74,8.337,41.485,8.337z"/>
</g>
</svg>
