<svg version="1.1" xmlns="http://www.w3.org/2000/svg" xmlns:xlink="http://www.w3.org/1999/xlink" x="0px" y="0px"
	 width="100%" viewBox="0 0 50 50">
<path fill="#FEFEFE" d="M47.17,15.028c-0.486-0.937-1.275-1.274-2.286-1.274c-3.112,0.039-6.26,0-9.37,0.039
	c-0.677,0-0.864-0.264-0.901-0.862c-0.073-1.425-0.373-2.811-0.711-4.2c-0.263-1.084-0.787-2.023-1.125-3.072
	c-0.302-0.601-0.638-1.164-1.05-1.686c-0.112-0.15-0.188-0.264-0.263-0.414c-0.524-0.674-1.012-1.349-1.687-1.837
	c-0.786-0.599-1.61-1.124-2.586-1.386c-2.811-0.749-5.323-0.262-7.534,1.649c-1.313,1.125-2.175,2.623-2.85,4.198
	c-0.3,0.75-0.713,1.499-0.749,2.323c-0.375,1.501-0.637,3-0.788,4.574c-0.074,0.751-0.074,0.751-0.824,0.751
	c-3.187,0-6.335,0-9.52,0c-0.788,0-1.462,0.261-1.913,0.973c-0.225,0.301-0.3,0.601-0.3,0.976c0,1.085,0.188,2.136,0.224,3.224
	c0.076,2.36,0.337,4.647,0.488,6.972c0.264,4.273,0.601,8.582,0.938,12.856c0.149,1.912,0.225,3.824,0.412,5.735
	c0.224,2.135,1.049,4.049,3.224,4.984C8.86,49.925,9.724,50,10.661,50c9.295,0,18.629,0,27.963,0c1.125,0,2.25-0.037,3.298-0.485
	c2.024-0.978,2.962-2.7,3.223-4.763c0.375-2.922,0.487-5.847,0.712-8.808c0.077-0.076,0.077-0.188,0.077-0.264
	c0.036-1.61,0.188-3.186,0.299-4.798c0.112-1.948,0.3-3.896,0.412-5.845c0.075-1.425,0.189-2.849,0.302-4.273
	c0.112-1.65,0.336-3.299,0.336-4.986C47.282,15.516,47.319,15.253,47.17,15.028z M17.841,13.031c0.3-1.573,0.374-3.187,0.937-4.723
	c0.75-2.212,1.725-4.273,3.975-5.322c2.135-1.013,4.124-0.638,5.735,0.786c1.388,1.199,2.138,2.849,2.661,4.574
	c0.188,0.487,0.262,0.974,0.414,1.461c0.296,1.05,0.41,2.173,0.598,3.262c0.077,0.486-0.075,0.711-0.638,0.711
	c-4.348,0-8.697,0-13.046,0C17.916,13.781,17.765,13.556,17.841,13.031z M32.776,38.567c-0.45,1.425-1.237,2.511-2.512,3.3
	c-0.188,0.112-0.411,0.225-0.6,0.336c-0.825,0.375-1.648,0.675-2.549,0.712c-1.538,0.263-3.073,0.112-4.574-0.3
	c-0.449-0.112-0.937-0.15-1.349-0.412c-0.488-0.224-1.013-0.336-1.426-0.674c-0.449-0.374-1.049-0.563-1.461-1.014
	c-0.264-0.3-0.711-0.563-0.375-1.085c0.301-0.488,0.713-0.45,1.201-0.263c0.973,0.749,2.098,1.274,3.259,1.687
	c0.301,0.224,0.713,0.038,1.051,0.263c1.348,0.3,2.699,0.375,4.049,0c1.049-0.3,2.023-0.75,2.811-1.574
	c0.413-0.413,0.601-0.938,0.825-1.426c0.487-2.399-0.638-3.822-2.511-4.947c-1.276-0.787-2.737-1.237-4.163-1.688
	c-1.049-0.337-2.062-0.712-2.999-1.311c-0.711-0.526-1.499-0.977-1.949-1.762c-0.825-1.311-1.2-2.661-0.788-4.198
	c0.076-0.3,0.263-0.563,0.337-0.826c0.526-1.387,1.537-2.359,2.849-2.885c2.998-1.238,5.924-0.75,8.733,0.751
	c0.226,0.11,0.413,0.298,0.601,0.486c0.3,0.3,0.337,0.599,0.15,0.862c-0.188,0.263-0.525,0.488-0.9,0.337
	c-0.636-0.263-1.274-0.563-1.912-0.826c-1.573-0.675-3.186-0.9-4.872-0.599c-1.688,0.3-3.375,2.062-3.524,3.786
	c-0.076,1.161,0.525,2.06,1.35,2.811c0.187,0.149,0.374,0.3,0.563,0.412c0.298,0.337,0.749,0.337,1.049,0.638
	c0.825,0.449,1.76,0.675,2.586,1.048c1.163,0.414,2.325,0.752,3.411,1.313c0.638,0.225,1.162,0.637,1.688,1.05
	c0.3,0.227,0.6,0.412,0.787,0.789c0.188,0.224,0.338,0.448,0.524,0.673c0.413,0.523,0.563,1.123,0.75,1.725
	C33.076,36.694,33,37.632,32.776,38.567z"/>
</svg>
