<svg version="1.1" id="Layer_1" xmlns="http://www.w3.org/2000/svg" xmlns:xlink="http://www.w3.org/1999/xlink" x="0px" y="0px"
	 width="50px" height="50px" viewBox="155 50 50 50">
<g>
	<path fill="#FFF" d="M168.076,60.458c0,2.211-1.997,4.003-4.459,4.003s-4.459-1.792-4.459-4.003c0-2.21,1.997-4.003,4.459-4.003
		S168.076,58.248,168.076,60.458"/>
	<path fill="#FFF" d="M157.128,70.491l2.736-4.256c0,0,3.851,2.988,5.016,4.003c1.166,1.013,3.243,2.735,3.192,5.522
		c-0.051,2.786-0.862,5.219-1.521,6.891c-0.658,1.672-4.965,10.488-4.965,10.488L155,89.036c0,0,6.335-5.86,8.766-9.425
		c0.76-1.114,1.672-4.053-0.912-5.573S157.128,70.491,157.128,70.491"/>
	<path fill="#FFF" d="M165.59,67.957c0,0,3.597-2.33,7.144-12.06c1.013,0.355,6.131,1.724,6.131,1.724l-1.672,3.09
		c0,0,7.652-2.33,14.238-2.33c0,0,3.598-0.152,6.385,0.76s5.625,2.788,6.334,5.827c0.71,3.04,1.469,13.175,0.051,22.345
		c0,0-0.305,2.129-2.28,4.004c-1.976,1.874-4.357,2.786-8.563,2.786c-4.205,0-6.435-0.811-6.435-0.811l0.861-3.547
		c0,0,2.584,0.962,4.61,0.962c2.027,0,3.75-0.86,4.662-1.925c0,0,0.811-1.216,0.861-2.229s0.102-20.47-0.102-21.129
		c-0.202-0.659-0.456-3.142-3.598-3.75c-3.141-0.607-5.624-0.202-6.384-0.05c-0.76,0.151-5.522,1.317-7.905,2.279
		c0.913,0.305,2.686,0.761,2.686,0.761s-0.811,1.672-2.28,3.293c2.027-0.05,15.505,0,15.505,0v3.041h-8.664v4.053h8.563v3.04h-8.563
		v6.436c0,0,1.418,0,3.495-1.622c-0.151-1.114-0.101-1.267-0.607-2.888c1.317-0.304,3.952-1.216,3.952-1.216l3.294,8.158
		l-4.916,1.925l-0.911-3.294c0,0-1.47,1.672-5.067,2.736c-5.009,1.482-8.208,1.419-9.07,1.368c0,0-2.432,0.101-3.901-0.558
		s-3.598-2.178-3.598-6.536c0-1.469,0.354-2.686,0.354-2.686l6.182,0.051c0,0-0.304,2.18-0.304,2.736
		c0,0.558-0.457,2.938,4.002,2.888c0-3.191-0.05-7.55-0.05-7.55l-8.816-0.05v-3.041h8.766v-3.851h-2.229c0,0-2.432,2.28-3.8,3.648
		l-2.533-2.229c0,0,2.923-3.04,4.915-7.448c-1.166,0.456-3.192,1.368-3.192,1.368s-1.419,1.824-3.192,3.698
		C168.681,69.427,165.59,67.957,165.59,67.957"/>
</g>
</svg>
