<svg version="1.1" xmlns="http://www.w3.org/2000/svg" xmlns:xlink="http://www.w3.org/1999/xlink" x="0px" y="0px" width="100%"
	 viewBox="0 0 590.7 588.7">
<style type="text/css">
	.st0{fill:#FEFEFE;}
</style>
<path class="st0" d="M307.4,163.3h109.9c9.6,38.9,14.9,78.8,15.6,118.9H307.4V163.3z"/>
<path class="st0" d="M157.4,306.4h125.7v119h-108c-1.1,0.2-2.1-0.4-2.3-1.5c0-0.1,0-0.2,0-0.3c-4.7-18.7-8.2-37.7-10.6-56.9
	c-1.6-12.7-2.5-25.4-3.5-38.2c-0.6-6.9-0.7-13.8-1-20.7C157.4,307.4,157.4,307,157.4,306.4z"/>
<path class="st0" d="M158,282.2c0-4,0-7.9,0-11.8c1.2-15.5,2.3-31.1,4-46.6c2.3-19.9,5.9-39.7,10.8-59.1c0-0.8,0.7-1.5,1.5-1.5
	c0.1,0,0.1,0,0.2,0h107.9h0.8v119L158,282.2L158,282.2z"/>
<path class="st0" d="M432.6,306.5c0,4,0,7.8,0,11.5c-1.2,15.6-2.4,31.2-4,46.8c-2.3,19.9-5.9,39.6-10.9,59.1c0,0.8-0.7,1.5-1.5,1.5
	c-0.1,0-0.1,0-0.2,0H308.2h-0.8V306.5L432.6,306.5L432.6,306.5z"/>
<path class="st0" d="M148.1,163.4c-8.9,39-13.7,78.8-14.3,118.8H8c0-3.3,0-6.6,0.5-9.8c2.8-37.6,13.1-74.2,30.1-107.8
	c0.4-1,1.4-1.6,2.4-1.4h107V163.4z"/>
<path class="st0" d="M8,306.4h125.7c0.6,40,5.4,79.9,14.4,119H41.4c-1.3,0.1-2.5-0.6-2.9-1.8c-11.4-22.7-19.7-46.8-24.7-71.7
	c-3-14.3-5-28.7-5.7-43.3C8,307.9,8,307.2,8,306.4z"/>
<path class="st0" d="M582.7,282.3H456.9c-0.6-40-5.4-79.9-14.4-119h106.7c1.3-0.1,2.5,0.7,2.9,1.9c17.8,35.2,28.1,73.8,30.3,113.2
	C582.7,279.6,582.7,280.9,582.7,282.3z"/>
<path class="st0" d="M582.7,306.4c-0.5,6.2-0.8,12.1-1.4,18c-1.3,12.3-3.3,24.4-6.2,36.4c-5.2,21.9-12.9,43.1-23,63.2
	c-0.3,0.9-1.1,1.5-2.1,1.4H442.5c9-39.1,13.8-79,14.4-119.1L582.7,306.4L582.7,306.4z"/>
<path class="st0" d="M283.2,580.7c-13.5-2.9-26-9.1-36.4-18c-11.4-9.6-21.4-20.8-29.6-33.3c-15.5-23.7-27.7-49.5-36-76.7l-0.7-2.8
	h102.8V580.7z"/>
<path class="st0" d="M307.3,580.7V449.9h103l-1.3,4c-6.1,19.2-14,37.9-23.6,55.6c-9.9,19.3-23.2,36.6-39.3,51.2
	C335.2,570.7,321.8,577.6,307.3,580.7z"/>
<path class="st0" d="M283.2,8v130.9H180.4c0-0.6,0-1,0.4-1.5c7.4-24,17.6-47,30.4-68.6c9.6-16.7,22.2-31.6,37-43.9
	C258.4,16.5,270.3,10.7,283.2,8z"/>
<path class="st0" d="M410.3,138.8H307.4V8c7.1,1.4,13.9,3.8,20.3,7.2c13.5,7.5,25.4,17.6,34.9,29.7c15.2,18.9,27.4,39.9,36.1,62.5
	c4,9.8,7.4,19.8,11,29.8C410.3,137.6,410.3,138.1,410.3,138.8z"/>
<path class="st0" d="M220.4,17.1c-2.5,2.6-4.9,5.2-7.4,7.9c-12,13.6-22.3,28.7-30.7,44.8c-11.3,21.3-20.3,43.7-27,66.9
	c-0.2,1.4-1.5,2.5-3,2.3c0,0,0,0-0.1,0H53.4c38.7-59.8,98-103.3,166.7-122.2L220.4,17.1z"/>
<path class="st0" d="M53.4,449.5h99c1.4-0.2,2.7,0.7,2.9,2.1c0,0,0,0.1,0,0.1c6.8,23.4,15.9,46,27.4,67.5
	c9.7,18.7,22.1,35.8,36.7,51l0.9,1c0,0.2,0,0.5,0,0.7C151.4,553,92.1,509.4,53.4,449.5z"/>
<path class="st0" d="M537,139.2h-98.6c-1.4,0.2-2.8-0.7-3-2.2c0,0,0,0,0-0.1c-6.7-23.2-15.7-45.6-27-66.9
	c-9.8-18.9-22.3-36.3-37.1-51.5c-0.5-0.4-0.9-0.9-1.1-1.5c22.7,5.9,44.5,14.7,65,26.1c20.6,11.5,39.6,25.4,56.8,41.5
	C509.1,101,524.2,119.3,537,139.2z"/>
<path class="st0" d="M370.1,571.6c2.5-2.6,4.9-5.2,7.4-7.9c11.9-13.5,22.1-28.3,30.5-44.3c11.4-21.5,20.5-44,27.3-67.4
	c0-1.5,1.2-2.7,2.7-2.7c0.2,0,0.4,0,0.6,0.1h98.2c-19,29.8-43.4,55.9-71.9,76.9C436.4,547.4,404.3,562.7,370.1,571.6z"/>
</svg>
