<svg version="1.1" xmlns="http://www.w3.org/2000/svg" xmlns:xlink="http://www.w3.org/1999/xlink" x="0px" y="0px"
	 width="100%" viewBox="0 0 50 50">
<path id="path2217" fill="#FEFEFE" d="M48.518,15.772c-0.87,0.086-4.492,0.897-5.71,1.158c-1.304,0.347-13.214,9.548-13.996,11.807
	c-0.173,0.782-0.26,1.985-0.26,3.116l-0.088,1.826c0,1.303,0.362,3.404,0.535,4.533c0.783,0.175,6.45,0.022,7.493,0.195
	l-0.128,2.338c-1.02-0.074-8.216-0.058-12.326-0.058c-2.087,0-8.796,0.23-10.857,0.168l0.39-2.222
	c1.13-0.088,5.81,0.201,6.838-0.885c0.511-0.538,0.348-1.115,0.348-4.245v-1.478c0-0.695,0-2-0.174-3.217
	C20.148,27.506,9.659,14.409,6.964,12.323c-0.783-0.261-5.687-0.751-6.903-1.013L0,9.308c0.607-0.305,6.06,0.074,11.351-0.122
	c3.478-0.128,11.412,0,12.392,0.117l-0.251,1.764c-1.043,0.262-6.067,0.358-7.371,0.705c3.391,5.042,8.751,11.533,10.491,14.055
	c0.956-1.391,9.36-7.172,9.621-9.172c-1.305-0.262-5.622-0.883-6.318-0.883L29.5,13.496c1.184-0.186,7.408,0,10.502,0
	c2.671,0,8.377,0,9.998,0.133L48.518,15.772"/>
</svg>
