<?xml version="1.0" encoding="utf-8"?>
<!-- Generator: Adobe Illustrator 16.0.0, SVG Export Plug-In . SVG Version: 6.00 Build 0)  -->
<!DOCTYPE svg PUBLIC "-//W3C//DTD SVG 1.1//EN" "http://www.w3.org/Graphics/SVG/1.1/DTD/svg11.dtd">
<svg version="1.1" id="圖層_1" xmlns="http://www.w3.org/2000/svg" xmlns:xlink="http://www.w3.org/1999/xlink" x="0px" y="0px"
	 width="718.799px" height="715.299px" viewBox="0 0 718.799 715.299" enable-background="new 0 0 718.799 715.299"
	 xml:space="preserve">
<path display="none" fill="#070707" d="M718.423,249.652h168.014c14.677,59.47,22.779,120.469,23.85,181.773H718.423V249.652z"/>
<path display="none" fill="#070707" d="M489.103,468.422h192.169v181.926H516.162c-1.682,0.306-3.21-0.611-3.517-2.293
	c0-0.153,0-0.307,0-0.459c-7.185-28.588-12.535-57.635-16.205-86.988c-2.445-19.415-3.821-38.831-5.351-58.398
	c-0.917-10.55-1.07-21.099-1.528-31.646C489.103,469.949,489.103,469.339,489.103,468.422z"/>
<path display="none" fill="#070707" d="M490.02,431.425c0-6.115,0-12.077,0-18.04c1.835-23.696,3.517-47.545,6.115-71.241
	c3.517-30.423,9.021-60.692,16.511-90.352c0-1.225,1.07-2.293,2.294-2.293c0.152,0,0.152,0,0.306,0h164.957h1.224v181.926H490.02
	L490.02,431.425z"/>
<path display="none" fill="#070707" d="M909.826,468.573c0,6.115,0,11.925,0,17.581c-1.835,23.851-3.669,47.698-6.114,71.548
	c-3.518,30.423-9.021,60.54-16.664,90.353c0,1.223-1.069,2.293-2.293,2.293c-0.152,0-0.152,0-0.307,0H719.645h-1.223V468.573
	H909.826L909.826,468.573z"/>
<path display="none" fill="#070707" d="M474.885,249.805c-13.606,59.622-20.944,120.469-21.861,181.62H260.702
	c0-5.045,0-10.09,0.764-14.982c4.281-57.481,20.027-113.437,46.017-164.804c0.612-1.528,2.142-2.445,3.67-2.14h163.58v0.306H474.885
	z"/>
<path display="none" fill="#070707" d="M260.702,468.422H452.87c0.917,61.15,8.257,122.149,22.016,181.926H311.763
	c-1.987,0.153-3.822-0.917-4.434-2.752c-17.43-34.703-30.117-71.547-37.763-109.614c-4.586-21.861-7.644-43.876-8.714-66.196
	C260.702,470.715,260.702,469.645,260.702,468.422z"/>
<path display="none" fill="#070707" d="M1139.299,431.576H946.976c-0.917-61.15-8.255-122.149-22.016-181.926h163.123
	c1.987-0.151,3.821,1.07,4.434,2.905c27.213,53.813,42.959,112.824,46.322,173.059
	C1139.299,427.449,1139.299,429.438,1139.299,431.576z"/>
<path display="none" fill="#070707" d="M1139.299,468.422c-0.766,9.479-1.224,18.498-2.142,27.518
	c-1.986,18.805-5.045,37.303-9.479,55.648c-7.949,33.479-19.721,65.891-35.162,96.619c-0.458,1.375-1.682,2.294-3.21,2.141H924.962
	c13.76-59.775,21.098-120.774,22.015-182.079L1139.299,468.422L1139.299,468.422z"/>
<path display="none" fill="#070707" d="M681.426,887.77c-20.64-4.434-39.749-13.912-55.648-27.519
	c-17.428-14.678-32.716-31.8-45.252-50.909c-23.696-36.232-42.348-75.675-55.036-117.258l-1.069-4.281h157.158V887.77H681.426z"/>
<path display="none" fill="#070707" d="M718.269,887.77V687.803h157.466l-1.987,6.115c-9.325,29.354-21.402,57.94-36.08,85
	c-15.135,29.507-35.468,55.954-60.08,78.274C760.923,872.482,740.437,883.031,718.269,887.77z"/>
<path display="none" fill="#070707" d="M681.426,12.231v200.118h-157.16c0-0.917,0-1.528,0.611-2.293
	c11.313-36.69,26.906-71.854,46.476-104.875c14.677-25.531,33.939-48.31,56.565-67.114
	C643.511,25.225,661.703,16.358,681.426,12.231z"/>
<path display="none" fill="#070707" d="M875.735,212.197H718.423V12.231c10.854,2.141,21.25,5.81,31.033,11.007
	c20.64,11.467,38.831,26.907,53.354,45.405c23.237,28.896,41.89,60.999,55.188,95.55c6.115,14.981,11.313,30.271,16.817,45.559
	C875.735,210.362,875.735,211.126,875.735,212.197z"/>
<path display="none" fill="#070707" d="M585.418,26.142c-3.822,3.977-7.491,7.95-11.313,12.078
	c-18.346,20.791-34.092,43.876-46.934,68.489c-17.275,32.563-31.035,66.809-41.277,102.275c-0.306,2.142-2.294,3.822-4.587,3.518
	c0,0,0,0-0.152,0H330.109C389.273,121.08,479.93,54.577,584.958,25.684L585.418,26.142z"/>
<path display="none" fill="#070707" d="M330.109,687.192H481.46c2.14-0.306,4.127,1.07,4.433,3.211v0.152
	c10.396,35.773,24.309,70.325,41.89,103.192c14.829,28.59,33.786,54.731,56.106,77.97l1.376,1.528c0,0.307,0,0.765,0,1.069
	C479.93,845.422,389.273,778.767,330.109,687.192z"/>
<path display="none" fill="#070707" d="M1069.433,212.808H918.694c-2.141,0.306-4.28-1.07-4.587-3.363c0,0,0,0,0-0.152
	c-10.242-35.469-24.002-69.713-41.277-102.275c-14.98-28.895-34.092-55.496-56.718-78.732c-0.765-0.611-1.376-1.377-1.682-2.294
	c34.703,9.021,68.03,22.475,99.371,39.901c31.493,17.581,60.54,38.831,86.836,63.445
	C1026.779,154.408,1049.864,182.385,1069.433,212.808z"/>
<path display="none" fill="#070707" d="M814.277,873.858c3.822-3.975,7.491-7.95,11.313-12.078
	c18.191-20.639,33.786-43.265,46.628-67.726c17.429-32.868,31.34-67.268,41.735-103.04c0-2.293,1.834-4.128,4.128-4.128
	c0.307,0,0.611,0,0.918,0.152h150.127c-29.048,45.559-66.351,85.459-109.92,117.563C915.636,836.861,866.562,860.25,814.277,873.858
	z"/>
<path fill="#FFFFFF" d="M361.499,5.351C164.169,5.351,4.201,163.079,4.201,357.65c0,194.569,159.968,352.299,357.298,352.299
	s357.3-157.729,357.3-352.299C718.799,163.079,558.829,5.351,361.499,5.351z M598.364,472.64c-3.018,2.977-6.973,4.464-10.928,4.464
	s-7.909-1.487-10.927-4.464L361.497,260.641L146.489,472.64c-3.017,2.977-6.973,4.464-10.927,4.464s-7.91-1.487-10.927-4.464
	c-6.035-5.95-6.035-15.597,0-21.548l223.717-220.586c3.584-3.534,8.489-4.952,13.148-4.288c4.656-0.663,9.562,0.755,13.145,4.288
	l223.717,220.586C604.398,457.044,604.398,466.69,598.364,472.64z"/>
</svg>
